<?xml version="1.0" encoding="utf-8"?>
<!-- Generator: Adobe Illustrator 23.0.1, SVG Export Plug-In . SVG Version: 6.00 Build 0)  -->
<svg version="1.1" id="Layer_1" xmlns="http://www.w3.org/2000/svg" xmlns:xlink="http://www.w3.org/1999/xlink" x="0px" y="0px"
	 viewBox="0 0 375.26 165.41" style="enable-background:new 0 0 375.26 165.41;" xml:space="preserve">
<style type="text/css">
	.st0{fill:#F15A22;}
	.st1{fill:none;stroke:#F15A22;stroke-width:3;stroke-miterlimit:10;}
</style>
<g>
	<path class="st0" d="M109.02,60.61c0,0-0.05-0.27-0.32-0.13l-0.09,0.19l-0.15,0.05h-0.26l-0.11,0.15h-0.46l-0.19,0.15l-0.1-0.13
		l-0.18,0.04l0.06,0.15h-0.17l-0.06-0.13c0,0-0.14,0.05-0.06,0.18l-0.18,0.24l-0.19-0.08v0.15l-0.38,0.37l-4.98,1.7l-0.57-0.43
		l-0.08,0.19v0.46l-0.68,0.52l-0.45,0.05l-0.65,0.08l-0.65,0.2H97.7l-0.37,0.24c0,0-0.27,0.05-0.38,0.24H96.1l-0.15-0.09v0.14h-0.19
		v-0.38h-0.22l0.09,0.43h-0.22l0.1-0.2l-0.22-0.03l-0.14,0.11l-0.49-0.03v-0.24l0.18-0.15l-0.01-0.19l-0.24-0.05v-0.86l0.1-0.28
		l0.28,0.09l0.24-0.05l0.33-0.11l0.01-0.26l0.22-0.13h0.26l0.66-0.54l0.33-0.04l0.29,0.09l-0.01-0.23l0.17-0.06l-0.09-0.33
		l1.15-0.64h0.28l0.01-0.32L99,60.71l0.14,0.03l0.09-0.18l0.19,0.03l0.17-0.33l0.54-0.42h0.26l0.01-0.33l0.24-0.06l0.09-1.09
		l0.33,0.08l3.96-1.53h0.48h0.19l-0.02-0.22h0.21v0.27l0.27-0.08l-0.1-0.29c0,0,0.75-1.05,2.22-0.92l0.25-0.34h0.38l0.42-0.52
		l0.59-0.25l0.17-0.27l0.31-0.11h0.65l0.21-0.11l0.11,0.17l0.27-0.17h0.33l0.29-0.46l4.51-0.98h0.13l-0.06,0.28l0.26-0.01L117,52.75
		l0.01-0.15l0.33,0.06l-0.09-0.18l-0.01-0.17h1.11l0.13-0.08h0.18l-0.06-0.13l0.22,0.08v-0.14l0.2,0.06v-0.14l0.36,0.08l-0.05-0.17
		h0.19c0,0,0.1-0.22,0.29,0l0.43-0.1l0.18-0.1l0.09,0.13l0.08-0.19l0.28,0.14v-0.2h0.4l0.11,0.14c0,0-0.15-0.5,0.34-0.26l0.2-0.31
		h0.19v0.31l0.23-0.01c0,0,0.04-0.17-0.1-0.29c0,0,0.01-0.38,0.29-0.22c0,0,0.04-0.2,0.23-0.13c0,0,0.11-0.18,0.26-0.08
		c0,0,0.22-0.08,0.2-0.14c-0.01-0.06,0.23,0,0.23,0l0.28-0.03l-0.13-0.15h0.97l0.09,0.14l0.1-0.14h0.17l2.04,4.55l-0.66-0.51
		l-0.16,0.18l-0.28-0.03l-0.08,0.15l-0.19-0.08l-0.08,0.1l-0.28-0.01l-0.06,0.1l-0.26-0.04l-0.03,0.13l-0.31-0.04l-0.11,0.13
		l-0.36-0.05l-0.19,0.13l-0.29,0.08l-0.36,0.08l-0.31,0.13l0.02-0.2l-0.14-0.06l0.03,0.23l-0.22,0.01l0.01-0.13l-0.14,0.28
		l-0.22,0.01l0.07-0.32l-0.18-0.06l0.02,0.29l-0.24,0.01l0.05-0.24l-0.15-0.04l0.01,0.49l-0.15,0.02l-0.2-0.14l-0.15,0.11
		l-0.13-0.13l-0.05,0.24l-0.06,0.46l-0.41-0.05l-0.04,0.14l-0.5-0.06l-0.11,0.11l-1.2-0.01l-0.1,0.13l-0.65-0.08l-0.08,0.14
		l-0.26-0.08l-0.1,0.14l-0.08,0.14l-0.22,0.05l-0.19,0.15l-0.09-0.13L117.02,57l-0.07,0.18h-0.15v0.17l-0.3-0.03l-0.08,0.11
		l-0.14-0.04v0.11l-0.17,0.04l0.06,0.17l-0.11,0.02l-0.04,0.11l-0.09-0.05l-0.1,0.06l0.11,0.11l-0.32,0.06l-0.01-0.15l-0.13,0.03
		v0.74l-0.35,0.31l0.02,0.15l-0.29,0.14v0.63l-0.37,0.32l-0.03,0.22l-0.22,0.14l0.03,0.27l-0.2-0.03l0.02,0.46l-0.15-0.05v0.35
		l-0.15-0.01l0.07,0.27h-0.2l0.06,0.4l-0.28,0.21l0.01,0.22l-0.18,0.11l0.03,0.54l-0.1,0.36l-0.13,0.14L113.1,64l-0.08,0.31
		l-0.05,0.2l-0.21-0.03v0.65l0.16-0.05l0.02,0.31l-0.2,0.14l0.01,0.17l-0.14,0.18l-0.05,0.7l-0.08,0.49l-2.72,2.45l-3.56-2.07
		l1.58-2.67l0.24,0.01l-0.02-1.05l0.1-0.03l-0.02-0.32l0.29-0.01l-0.05-0.24l-0.12-0.01v-0.27l0.15,0.01l-0.03-0.21l0.1,0.02v-0.21
		l0.11-0.04l0.11-0.28l0.19-0.08l-0.1-0.25l-0.18-0.02v-0.44l0.14,0.02l-0.04-0.28l0.1,0.03v-0.22l0.18-0.13l0.31-0.01v-0.13
		L109.02,60.61z"/>
	<g>
		<polygon class="st0" points="106.17,61.84 106.43,62.48 106.48,63.08 106.32,63.33 106.66,63.37 106.66,63.49 106.91,63.49 
			106.91,63.77 107.29,63.93 107.86,64.79 105.62,68.71 105.33,68.6 104.32,67.35 103.98,67.32 102.76,66.04 102.76,65.75 
			102.38,65.58 102.24,64.7 101.89,64.56 101.62,64.15 101.53,63.42 101.53,63.14 106.14,61.73 		"/>
		<polygon class="st0" points="105.62,68.71 105.84,68.98 106.07,68.98 106.07,69.22 106.33,69.31 106.33,69.48 106.76,69.73 
			106.86,70.4 106.86,72.63 106.73,72.7 106.6,72.7 106.59,72.89 106.44,72.89 106.44,73.19 106.34,73.28 106.37,73.99 
			106.45,74.13 106.24,74.21 106.05,74.48 106.01,74.77 106.01,75.73 105.91,76.34 106.01,76.86 106.29,77 106.24,77.22 
			107.82,77.22 107.87,77.05 108.04,76.99 108.19,76.82 108.23,76.35 108.44,76.31 108.38,76.03 108.52,76.02 108.6,75.83 
			108.42,75.71 108.51,75.53 108.6,75.37 108.5,75.11 108.68,75.16 108.68,74.8 108.84,74.56 108.91,74.33 109.09,74.27 
			109.09,73.99 109.28,73.87 109.28,73.58 109.46,73.49 109.35,73.32 109.57,73.17 109.57,72.96 109.57,72.68 109.57,72.43 
			109.76,72.32 109.9,72.11 109.97,71.93 110.15,71.84 110.15,71.63 110.06,71.4 113.14,67.7 112.96,67.47 112.76,67.38 
			112.68,67.17 112.39,67.17 107.66,64.73 105.42,68.64 		"/>
		<path class="st0" d="M110.15,71.29h0.28l0.12-0.32l0.25,0.32l0.27,0.29l0.17-0.3l0.4,0.13v0.52l0.33,0.14l0.35,0.31l0.38,0.17
			v-0.31l0.44,0.45l0.16,0.38h0.22l0.12,0.18h0.46v0.21l1.28-0.09l0.12,0.15h0.34l0.24,0.21h0.39l0.1,0.19l0.68-0.07l0.33-0.04
			l0.16,0.19l0.13,0.12l0.16,0.07h0.15v-0.18h0.18v0.28l0.21-0.24l0.15,0.33h0.58l0.13,0.12l0.1-0.16l0.97,0.09l0.28,0.07v-0.18
			l0.39,0.03l0.07,0.24l1.16-0.1l0.15,0.16h1.52l0.19-0.09l0.19-0.24l0.28,0.03l0.07,0.19l0.34-0.04l0.06-0.18l0.33,0.13l0.25-0.07
			l1.26-0.04l0.27,0.06l0.18-0.16h0.25l0.19-0.16l0.22-0.12l0.07-0.18l0.19,0.12l0.19-0.19l0.48-0.21l0.27-0.06v-0.15l0.16,0.04
			l0.22-0.06l0.15-0.01h0.21v-0.24l0.3,0.06l-0.06-0.26h0.18l0.15-0.15l0.13,0.09l0.13-0.13l0.19-0.03l0.27-0.01l-0.07-0.19
			l0.24,0.06l0.1-0.13l0.13-0.01l0.06-0.09l0.13,0.07l-0.02-0.15l0.16,0.03l0.16-0.11l0.15-0.08l0.27-0.08l0.14-0.19l0.29-0.05
			l-0.03-0.18l0.07-0.07l-1.84-4.16l-0.16,0.24l-0.33,0.09l-0.29-0.01l-0.04,0.29l-0.21,0.12l-0.21,0.07l-0.16,0.21l-0.19-0.09
			l-0.01,0.17l-0.14,0.02l-0.13,0.2v0.12l-0.34,0.04l-0.04,0.12l-0.26-0.01l-0.12,0.12l-0.14,0.06l-0.32-0.04v0.1l-0.18,0.13
			l-0.32-0.03l-0.02,0.13l-0.38-0.08l-0.01,0.15l-0.33-0.08v0.14l-0.41-0.04l-0.04,0.14l-0.12,0.06l0.02,0.29l-0.35,0.05v-0.18
			l-0.17-0.04l-0.15-0.19l-0.12,0.22l-0.06,0.28l-0.18,0.03l-0.06-0.16l-0.1,0.08h-0.43l-0.45-0.08l-0.21,0.51l-0.21-0.49L123.72,70
			l-0.14,0.29l-0.3-0.13l-0.05,0.28l-0.18-0.04l-0.06-0.15l-0.2,0.15l-0.22-0.12l0.06,0.15l-0.23-0.19l-0.42-0.04l-0.73-0.03
			l-0.1-0.13l-0.74,0.08l-0.02-0.21l-0.34,0.01l-0.3-0.04l-0.23-0.03l-0.1,0.08l-0.05,0.17l-0.26-0.11l-0.13-0.29l-0.29,0.04
			l-0.12-0.22l-0.37-0.06l-0.19-0.15l-0.56,0.01l-0.19-0.12l0.12-0.1l-0.22-0.11v-0.15l-0.22-0.04l-0.05,0.14l-0.12-0.14l-0.12,0.01
			l-0.12,0.11l-0.16-0.04l-0.16,0.09l-0.17,0.12l-0.27-0.13l0.04-0.15c0,0-0.13-0.17-0.12-0.14s-0.21,0.08-0.21,0.08l-0.02-0.34
			l-0.22-0.04l-0.26-0.19l-0.36,0.05l-0.1-0.12l-0.21-0.04l-0.02-0.12l-0.14,0.02l-0.21-0.18l-0.29-0.15l-0.29,0.02l-0.08,0.15
			l-0.37-0.3l-2.9,3.68L110.15,71.29z"/>
		<polygon class="st0" points="133.19,71.4 133.75,71.4 133.85,71.59 134.07,71.5 134.07,72.1 134.15,72.37 134.3,72.4 134.97,72.4 
			135.01,72.64 135.24,72.72 135.24,72.9 135.44,72.8 135.44,73.01 135.32,73.08 135.38,73.38 135.44,73.46 135.4,73.66 
			135.54,73.66 135.5,73.89 135.64,73.89 135.59,74.05 135.9,74.05 135.86,74.4 135.64,74.3 135.67,74.69 135.8,74.75 135.75,75.08 
			136,75.01 135.93,75.24 136.38,75.2 136.33,75.47 136.76,75.42 136.67,75.71 136.89,75.66 136.83,75.91 136.99,75.91 
			136.92,76.08 137.06,76.04 137.06,76.22 137.28,76.54 137.55,76.54 137.48,76.84 137.67,76.79 137.67,76.95 137.93,76.95 
			138.02,77.26 139.34,77.26 139.44,77.2 139.38,77.01 139.52,77.05 139.52,76.78 139.39,76.54 139.31,76.35 139.52,76.39 
			139.52,75.71 139.25,75.44 139.24,74.89 139.09,74.72 139.13,74.53 138.97,74.56 138.83,74.02 138.91,73.67 138.85,73.48 
			138.83,73.16 138.76,72.97 138.53,72.86 138.41,72.73 138.41,72.12 138.18,71.86 138.19,71.73 138.06,71.71 138.14,70.91 
			138.44,70.91 138.34,70.67 138.18,70.41 138,70.44 137.88,70.2 138,70.03 138.05,69.78 138.01,69.48 138.08,69.05 138.09,68.6 
			137.86,68.49 137.73,68.36 137.78,68 137.85,67.71 137.93,67.57 137.87,67.44 138.05,67.32 138.23,67.32 138.34,67.17 
			138.27,66.93 138.4,66.93 138.43,66.53 131.32,67.29 132.37,71.19 		"/>
		<polygon class="st0" points="135.61,67.08 135.42,62.96 135.26,62.81 135.11,62.56 134.97,62.62 134.93,62.38 134.77,62.46 
			134.66,62.29 134.51,62.32 134.36,62.24 134.2,62.15 134.06,62.15 134.03,61.81 134.13,61.73 134.22,61.77 134.22,61.46 
			134.22,61.3 134.19,61.1 133.95,61.15 133.9,60.99 133.99,60.85 133.81,60.63 133.78,60.46 133.78,60.27 133.66,60.36 
			133.71,60.16 133.54,60.11 133.54,59.59 133.35,59.64 133.4,59.44 133.51,59.44 133.44,59.2 133.55,59.2 133.56,58.12 
			133.39,58.19 133.45,57.79 133.3,57.84 133.39,57.37 133.25,57.37 133.13,57.25 133.23,57.13 132.98,57.13 132.92,57.03 
			132.82,56.99 132.9,56.65 133.01,56.57 132.86,56.42 132.92,56.22 132.77,56.18 132.8,55.95 132.65,56.04 132.72,55.78 
			132.52,55.83 132.46,55.68 132.46,55.43 132.11,55.43 132.31,55.16 132.26,54.39 132.11,54.27 132.15,54.11 132.03,53.65 
			131.93,53.49 131.86,53.34 131.71,53.34 131.71,53.2 131.52,53.2 131.59,52.98 131.44,53.01 131.47,52.8 131.18,52.87 
			131.22,52.51 131.34,52.51 131.62,52.4 131.98,52.33 130.36,48.02 130.23,48.02 130.23,48.12 129.96,48.08 129.96,48.19 
			129.6,48.18 129.63,48.28 129.51,48.37 129.29,48.36 129.24,48.24 129.24,48.1 129.12,48.12 129.15,47.85 128.97,47.85 
			128.97,47.65 129.05,47.54 125.03,49.05 125.11,49.16 125.06,49.29 125.11,49.38 125.18,49.4 125.15,49.52 125.24,49.55 
			125.26,49.71 125.13,49.67 125.17,49.78 125.06,49.78 125.11,50.11 125,50.14 124.91,50.22 124.94,50.36 124.65,50.33 
			124.68,50.63 126.33,54.37 126.99,54.95 127.1,54.98 127.19,54.96 127.15,55.08 127.28,55.04 127.33,55.21 127.48,55.22 
			127.58,55.56 127.68,55.72 127.82,55.71 127.83,55.96 127.98,55.91 127.9,56.18 128.03,56.19 128.09,56.49 128.19,56.67 
			128.13,56.88 128.07,57.15 128.1,57.36 128.03,57.8 128.27,57.76 128.18,58.03 128.28,58.18 128.2,58.4 128.37,58.44 
			128.31,58.77 128.47,58.97 128.46,59.15 128.69,59.12 128.73,59.42 128.96,59.7 128.76,59.84 128.8,60.23 128.83,60.55 
			129.08,60.6 128.94,60.83 129.06,61.11 129.31,61.31 129.31,61.59 129.56,61.82 129.54,62.21 129.75,62.21 129.66,62.61 
			129.79,62.84 129.89,63.14 130.13,63.18 130.13,63.41 130.44,63.37 130.39,63.76 130.35,64.04 130.56,64.17 130.39,64.45 
			130.46,64.8 130.65,65.05 130.76,65.33 130.81,65.63 130.86,65.93 131.11,66.07 131.32,66.18 131.32,66.53 131.48,66.8 
			131.46,67.25 131.39,67.58 		"/>
		<path class="st0" d="M135.26,63.07l0.2-0.13v-0.11l0.11,0.07v-0.14l0.04-0.13l0.11-0.04v-0.17l0.13,0.05v-0.71h-0.12l-0.05-0.42
			h0.13l-0.02-0.23h0.16l0.05-0.11l0.09-0.11v-0.2l0.13,0.04v-0.18h0.08l-0.04-0.36l0.14,0.05v-0.21l0.07-0.23l0.08-0.17h0.16v-0.4
			h0.1v-0.26h0.09l-0.05-0.5l0.11,0.05l-0.03-0.21h0.18l0.11-0.11v-0.14l0.09,0.05v-0.28h-0.14l0.04-0.68h0.27l-0.04-0.17h-0.1
			l0.02-1.26l0.2,0.03v-0.59h-0.14l0.01-1.51l0.13,0.04v-0.3l-0.03-0.15l0.18-0.08v-0.18l-0.05-0.17l0.14,0.05v-0.17l-0.04-0.13
			l0.11-0.1l-0.15-0.05l-0.04-0.35l0.08-0.08l-0.08-0.23l0.02-0.27h0.17l-0.18-0.26l0.01-0.3l0.06-0.2l-0.19,0.04l-0.04-0.21
			l0.05-0.2l-0.26,0.09l-0.12-0.13l-0.01-0.23h-0.23l0.03-0.25l-0.2,0.03l0.02,0.55l-0.18,0.02l-0.05-0.19l-0.29-0.07l-0.17,0.1
			l0.08,0.24l0.17-0.02l-0.12,0.2l-0.17-0.02l-0.04,0.13l-0.16-0.08l-0.2,0.22l-0.4,0.21l-0.41-0.01l-0.13,0.28l-0.47-0.05
			l-0.07-0.26l-0.15,0.07v0.48l-0.27,0.02v-0.23l-0.35,0.03l0.05,0.2l-0.13,0.08l-0.24,0.1v0.11l-0.41-0.09v0.19l-0.99,0.18
			l-0.61,0.19l-1.27-3.96l0.57-0.48h0.3l0.08-0.18l0.41,0.04l-0.03-0.22l0.47,0.05l0.15-0.12l0.02,0.26h0.12v-0.35l0.2,0.13
			l0.14-0.22l0.19-0.07h0.18l0.02-0.15l0.22,0.04l-0.06-0.22l0.29,0.04l-0.06-0.14l0.3,0.06v-0.14l0.17,0.04l-0.05-0.15l0.27,0.06
			v-0.12l0.12,0.06l0.31-0.01v-0.1h0.09l0.01-0.12l0.09-0.04l0.16,0.04l-0.02-0.18l-0.01-0.2l-0.18,0.05l0.05-0.28l-0.28,0.04
			l0.01-0.16l-0.2,0.08l0.04-0.16l-0.17-0.07l-0.15-0.49l-0.29,0.04l0.1-0.15l-0.18,0.07l0.04-0.43l-0.28,0.03l-0.23-0.22
			l-0.22,0.03l0.01-0.22l-0.48-0.43l0.11-0.35l-0.36,0.18l-0.09-0.45h-0.13l-0.17-0.03l-0.14,0.1l-0.09-0.1l-0.12-0.07l-0.18-0.22
			l-0.33-0.19l-0.03,0.43l-0.1-0.56l4.81-3.35l0.15,0.45l0.13-0.13l0.2,0.08l0.01,0.25l0.21,0.06l0.17-0.04l0.06,0.3l0.13,0.24
			l0.23,0.11l0.24-0.12l0.19,0.06l0.05,0.31l0.26,0.06v0.19l0.11,0.06l0.27,0.05l0.05,0.12l0.11,0.01l0.06,0.16l0.16,0.13l0.21,0.02
			l-0.05,0.23l0.1,0.15l0.14,0.12l0.04,0.15l0.09,0.07l-0.05,0.25l0.23-0.03v0.22l0.13,0.13l0.07,0.15l0.15,0.02l-0.09,0.21
			l0.02,0.33l0.15-0.06V43.3l0.21,0.02v0.13l0.15-0.01v-0.16l0.19,0.46l0.12,0.07l-0.04,0.15l0.37-0.11l0.78,0.05l0.28-0.11
			l-0.06,0.27l0.55-0.06l0.26,0.1v-0.2l0.46,0.06l0.04-0.13l0.22,0.06l0.29-0.06l0.11,0.08l0.08-0.24l0.22,0.04l0.08-0.13l0.23,0.04
			v-0.12l0.18,0.06l0.24-0.08l0.14,0.07l0.09-0.15l0.16,0.05v-0.29l0.2,0.14l0.15-0.13l0.18,0.12l0.25-0.14l0.05,0.39l0.19-0.01
			l0.07-0.6l0.11,0.61h0.15l-0.05-0.54l0.21,0.05l0.23-0.19l0.15-0.04l0.28,0.07v-0.16l0.19,0.05l0.15-0.19l0.15-0.06l0.55,0.04
			l0.08-0.29l0.24,0.03l0.57-0.07l0.35,0.1l0.34-0.06l0.13,0.14l0.15-0.05v0.13l0.08,1.4l-0.22-0.06l-0.04,0.15l-0.26,0.03v0.2
			l-0.17,0.1l-0.18,0.05l0.01,0.13l-0.21-0.07l0.02,0.16l-0.79,0.01l-0.16,0.33l-0.19,0.05l-0.05,0.25l-0.23-0.08l-0.46,0.11
			l0.03,0.15l-0.25-0.05v0.25l-0.17-0.06l-0.04,0.15l-0.56,0.16l0.03,0.19l-0.18,0.19l-0.17-0.03l-0.04,0.27l-0.36-0.02l-0.01,0.31
			l-0.19,0.18l0.06,0.23l-0.15-0.07l-0.31,0.3l-0.5,0.15l0.05,0.35l-0.25-0.03l-0.3,0.33l-0.98,0.38l-0.34-0.02l0.18,0.21l-0.2,0.17
			l0.06,0.49l-0.12,0.13l0.01,0.25l-0.16,0.01l-0.13,0.26l0.06,0.17l0.15,0.05l0.15,0.03l-0.11,0.16l0.05,0.22l-0.05,0.25l0.1,0.11
			l-0.04,0.18l-0.09,0.07l0.07,0.09l0.02,0.14l0.12-0.05l0.05,0.21l0.02,0.78l-0.2-0.02l0.05,0.29l-0.15,0.03l0.17,0.13l-0.09,0.21
			h0.13l0.03,0.25l0.07,0.43l-0.29,0.03l0.2,0.42l0.12,0.46l-0.15,0.21l-0.37,0.17l-0.06,0.37l0.31,0.01l0.12,0.35l-0.02,0.63
			l-0.14,0.15l0.14,0.12l0.07,0.26l-0.11,0.35l-0.17,0.22l0.05,0.2l-0.19,0.07l0.01,0.63l-0.12,0.05l0.14,0.24l0.22,0.22v0.47
			l-0.17,0.25l0.03,0.15l0.13-0.08l-0.22,0.48L141.49,61l-0.47,0.38l0.01,1.09l-0.5,0.32v0.45l-0.22-0.06l0.04,0.28h0.24l0.03,0.78
			l-0.29,0.18l0.01,0.25l-0.14,0.1l0.03,0.16l-0.32,0.12l-0.34,0.64h-0.36l-0.13,0.26h-0.13l0.05,0.17l-0.26,0.08l-0.02,0.22
			l-0.48,0.37c0,0-2.91,0.84-2.94,0.85c-0.03,0.01-0.72-2.55-0.72-2.55L135.26,63.07z"/>
		<path class="st0" d="M135.37,39.66v-0.45l-0.16-0.07l-0.12-0.1l0.04-0.47l-0.19,0.03v-0.13l-0.24,0.03l-0.09-0.16l-0.36-0.03
			l0.09-0.28l-0.21,0.03v-0.32l-0.16-0.08h-0.11v-0.13l-0.23,0.08V37.5h-0.1v-0.1l-0.17,0.03l0.04-0.14h-0.77l-0.03-0.12l-0.14,0.03
			l0.04-0.23l-0.28-0.06h-0.12l0.09-0.12h-0.21l-0.07,0.14l-0.1-0.01v-0.19l-0.24,0.04l-0.12-0.08v0.19l-0.25-0.05v-0.18l-0.32-0.34
			l-0.26,0.04l-0.05-0.22h-0.18v-0.16l-0.16-0.06h-0.25v-0.1l-0.26,0.06v-0.2h-0.43l-0.23-0.08v-0.4h-0.26l-0.48-0.12H128
			l-0.05-0.23l0.07-0.29l-0.23,0.07l-0.38-0.17h-0.46l-0.07,0.2l-0.28-0.02l-0.06-0.21l-0.19,0.12l-0.19,0.09l-0.34,0.01l-0.34-0.14
			l-0.3,0.14l-0.51-0.22l-0.1-0.25l0.03-0.23v-0.65l-0.27-0.32h-0.25v-0.35h0.12l-0.12-0.69v-0.33l-0.09-0.34l-0.09-0.32l-0.18-0.12
			l0.07-0.21l-0.14-0.1l-0.23-0.12l0.1-0.25l-0.1-0.29l0.06-0.16l0.05-0.27l-0.12-0.21v-0.23h-0.29l0.05-0.51h-0.16V28.3l-0.1-0.1
			v-0.18l-0.33-0.16l0.05-0.67l-0.27-0.08l0.14-0.49h-0.28v-0.18h0.13v-0.57h-0.16l0.07-0.45h-0.16l0.1-0.28l-0.21-0.34V24.4
			l-0.26-0.52l-0.12-0.33h-0.28l0.2-0.36l-0.2-0.49h-0.55l-0.07,0.49l-0.2,0.59l-0.23,0.57l-0.07,0.77l-0.31,0.1l0.08,1.09
			l-0.2,0.39v0.52l0.16,0.15l-0.08,0.28v0.38l-0.2-0.08l0.11,0.59l-0.18-0.1l0.15,0.52l-0.15,0.26l0.13,0.09l-0.35,0.18l-0.12,0.68
			l-0.07,1.12l0.12,0.16l-0.17,0.03v0.57l-0.38,0.41v0.33l-0.2,0.21l-0.13,0.18v0.13l-0.26-0.02l-0.05,0.2l-0.18,0.08l-0.09,0.2
			l-0.13-0.04v0.23l-0.13,0.07l0.04,0.33l-0.29-0.07l0.05,0.33l-0.15-0.03l0.06,0.51l-0.17,0.13l-0.27-0.07v0.2l-0.31-0.06
			l-0.06,0.24l4.32,3.76l0.1,0.04h0.17l-0.06,0.15h0.31l-0.04,0.26l0.03,0.53h0.2l0.06,0.19h0.29l0.06,0.42h0.21v0.21l-0.19-0.05
			c0,0-0.01,0.54,0.02,0.54c0.04,0,0.16,0,0.16,0l-0.09,0.29l0.21,0.07l-0.04,0.81l0.09,0.12l0.19,0.25l0.41,0.27l-0.17,0.15
			l-0.01,0.37l0.16,0.05l-0.12,0.21l0.25,0.05L123,44.56h0.35l-0.09,0.3h0.19l-0.11,0.34l0.25-0.05l-0.16,0.22l0.13-0.05l0.21-0.08
			l-0.14,0.26l0.21,0.47v0.39l0.32,0.07l-0.26,0.24l0.14,0.4l0.25,0.09l-0.06,0.46h0.29l-0.02,0.25l0.39-0.09l-0.22,0.22l0.26,0.26
			l0.09,0.66l0.2,0.35l3.96-1.43l-0.1-0.31l0.01-0.21l0.12,0.02l-0.1-0.44l-0.01-0.23l-0.15-0.14l-0.21-0.19l0.03-0.17l-0.24,0.02
			l0.01-0.3l0.06-0.14l-0.49-0.7l0.01-0.23l-0.14,0.06l0.07-0.3l-0.15,0.01l-0.03-0.25l-0.17,0.03l-0.07-0.23l-0.12-0.3l-0.16-0.39
			l-0.25,0.02l0.21-0.32l-0.04-0.53l-0.11-0.17l-0.29-0.08l0.01-0.35l-0.1-0.3l0.14-0.13l-0.07-0.43l-0.17-0.2l0.04-0.25l0.19,0.1
			l0.28,0.01l0.05-0.17l0.15,0.19l0.06,0.14l0.18,0.19l0.15,0.03l0.01,0.14l0.14,0.06l0.15,0.1l0.2,0.12l0.21-0.01l0.04,0.11
			l0.34-0.02l0.05,0.16l0.2,0.12l0.12-0.03l-0.01,0.14l0.21,0.01l0.14,0.12l0.24-0.06l0.2,0.04l0.16-0.01l-0.01,0.12l0.09,0.14
			l0.09,0.1l0.54-0.01L135.37,39.66z"/>
		<polygon class="st0" points="112.18,53.71 116.88,52.67 116.67,52.53 116.88,52.22 117.03,52.07 117.17,51.78 117.03,51.78 
			117.17,51.36 117.53,51.22 117.74,50.63 117.54,50.4 117.57,49.94 118.03,49.84 118.03,49.04 117.9,49.04 118.03,48.64 
			118.03,48.19 118.34,47.91 118.45,47.74 118.58,47.8 118.52,47.48 118.65,47.2 119.05,47.31 119.05,46.52 118.86,46.4 
			119.05,46.31 119.02,45.97 119.21,45.85 119.36,45.52 119.36,45.19 119.48,45.19 119.48,43.97 119.55,43.77 119.4,43.67 
			119.45,43.18 119.61,43.18 119.71,42.93 119.59,42.76 119.87,42.71 119.84,42.48 119.73,42.44 119.87,42.07 120.11,41.87 
			120.11,41.54 120.19,41.13 120.3,41.13 120.33,41.03 120.33,40.61 120.45,40.66 120.38,40.4 120.51,40.4 120.49,40.12 
			120.62,40.16 120.56,39.97 120.71,39.99 120.79,39.89 120.79,39.72 120.66,39.75 120.66,39.57 120.85,39.55 120.85,39.38 
			120.85,36.9 116.53,35.46 116.38,35.7 116.08,35.64 116,35.89 115.39,35.83 115.89,40.86 116.07,40.94 115.94,41.28 115.88,41.42 
			115.81,41.49 115.82,41.91 115.98,41.89 115.97,42.44 115.75,42.36 115.63,42.44 115.63,42.66 115.53,42.66 115.57,42.81 
			115.44,42.8 115.47,43.3 115.28,43.28 115.34,43.58 115.2,43.53 115.24,43.87 115.14,43.89 115.16,44.06 115.04,44.12 
			115.08,44.3 114.96,44.34 114.99,45.06 114.83,45.04 114.84,45.21 114.53,45.16 114.58,45.48 114.44,45.41 114.49,45.64 
			114.36,45.59 114.42,45.86 114.41,46.18 114.24,46.18 114.25,46.56 113.96,46.5 114.01,47.37 113.81,47.34 113.83,47.45 
			113.71,47.41 113.76,47.88 113.54,47.81 113.62,48.03 113.44,47.94 113.41,48.13 113.35,48.84 113.6,48.82 113.49,49.03 
			113.51,49.19 113.33,49.19 113.42,49.43 113.32,49.62 113.12,49.78 112.91,50.17 112.97,50.5 112.75,50.51 112.85,50.72 
			112.63,50.98 112.65,51.22 112.46,51.33 112.61,51.64 112.44,51.94 112.52,52.21 112.37,52.4 112.47,52.67 112.34,53.18 		"/>
	</g>
	<polygon class="st0" points="116.04,40.92 115.79,40.97 115.72,41.1 115.57,41.01 115.47,41.21 115.47,41.4 115.28,41.34 
		115.28,41.49 114.93,41.65 114.46,41.83 114.25,41.97 114.01,41.97 113.76,42.05 113.76,41.87 113.64,41.84 113.6,42.16 
		113.52,42.47 113.22,42.47 113.27,42.69 113.1,42.75 113.1,42.89 112.88,42.93 112.83,43.08 112.71,43 112.71,43.16 112.53,43.22 
		112.18,43.18 112.25,43.31 112.18,43.42 111.97,43.57 111.69,43.51 111.77,43.66 111.6,43.8 111.32,43.8 111.32,43.99 110.8,44.33 
		110.8,44.52 110.46,44.52 110.46,44.85 110.18,44.85 110.06,44.75 109.83,44.85 109.79,45.13 109.94,45.07 109.92,45.36 
		109.79,45.42 109.67,45.53 109.46,45.75 109.46,45.86 109.15,45.86 109.15,46.04 109.04,46.24 108.83,46.3 108.75,46.62 
		108.44,46.81 108.39,47.11 107.85,47.77 107.75,48.27 107.69,48.43 107.37,48.61 107.12,48.83 107.02,49.17 107.18,49.17 
		107.06,49.4 107.12,49.58 106.94,49.58 107.05,49.84 106.89,49.84 106.93,50.16 106.74,50.21 106.74,50.67 106.58,50.67 
		106.58,50.97 106.46,51.13 106.52,51.35 106.28,51.35 106.35,51.52 106.35,51.92 106.23,51.92 106.32,52.16 106.13,52.2 
		106.19,52.41 105.91,52.5 105.95,52.82 105.74,52.82 105.89,53.13 105.94,53.71 105.82,53.83 105.87,54.06 105.74,54.13 
		105.58,54.42 105.65,54.55 105.5,54.78 105.5,56.43 105.37,56.65 105.55,56.81 105.75,57.07 100.86,58.69 101.08,58.27 101.04,58 
		100.73,58.07 100.73,56.94 100.38,56.85 100.38,55.68 100.04,55.15 100.04,53.94 100.29,53.5 100.29,53.14 100.66,53.21 
		100.66,52.81 100.88,52.83 100.55,52.48 100.77,51.71 101.02,51.49 100.93,51.11 101.24,50.4 101.52,50.4 101.59,50.05 
		101.48,49.84 101.77,49.46 101.72,49.13 102.01,48.99 101.86,48.15 102.1,47.76 102.41,47.76 102.43,47.34 102.72,47.54 
		102.8,47.16 103.05,46.5 103.36,46.56 103.25,45.92 103.51,45.75 103.45,45.37 103.71,45.26 103.75,44.8 104.15,44.82 
		104.17,44.33 104.53,43.96 104.95,43.8 104.92,43.25 105.72,42.48 105.79,41.79 106.23,41.44 106.46,41.47 106.42,41.19 
		106.8,41.4 106.84,40.69 107.05,40.54 107.37,40.43 107.6,40.4 107.74,40.32 107.71,40.07 107.93,40.29 108.26,39.93 108.59,39.64 
		108.79,39.67 108.86,39.44 109.06,39.41 109.01,39.13 109.21,39.13 109.09,38.55 109.68,38.58 109.76,38.4 109.9,38.4 
		110.36,37.93 110.76,37.28 111.08,37.31 111.17,36.97 111.75,36.97 111.98,37.37 112.01,36.92 112.34,36.99 112.57,36.78 
		113.18,36.65 113.31,36.99 113.41,36.57 113.96,36.33 115.03,36.2 115.39,35.83 117.04,35.99 117.04,41.03 	"/>
</g>
<path d="M55.27,72.96l7.14-36.47l11.65,26.37l12.06-26.37l6.42,36.47h-5.25l-3.27-20.48L73.96,74.52l-9.76-22.06l-3.65,20.5H55.27z"
	/>
<path d="M157.3,37.59l9.38,23.51l9.51-23.51h5.6l-15.23,36.47l-14.88-36.47H157.3z"/>
<path d="M204.74,42.41h-13.6v8.15h13.21v4.81h-13.21v11.34h13.6v4.81h-18.72V37.59h18.72V42.41z"/>
<path d="M222.95,57.06l10.5,14.46h-6.26l-9.69-13.89h-0.92v13.89h-5.12V37.59h6c4.48,0,7.72,0.84,9.71,2.53
	c2.2,1.88,3.3,4.35,3.3,7.43c0,2.4-0.69,4.47-2.07,6.2S225.21,56.58,222.95,57.06z M216.58,53.17h1.63c4.85,0,7.27-1.85,7.27-5.56
	c0-3.47-2.36-5.21-7.08-5.21h-1.82V53.17z"/>
<path d="M243.67,37.59v33.93h-5.12V37.59H243.67z"/>
<path d="M276.89,39.42v6.06c-2.96-2.48-6.02-3.71-9.18-3.71c-3.49,0-6.42,1.25-8.81,3.76c-2.4,2.49-3.6,5.54-3.6,9.14
	c0,3.56,1.2,6.56,3.6,9.01s5.35,3.67,8.83,3.67c1.8,0,3.33-0.29,4.59-0.88c0.7-0.29,1.43-0.69,2.19-1.19c0.75-0.5,1.55-1.1,2.38-1.8
	v6.17c-2.93,1.66-6.01,2.48-9.23,2.48c-4.85,0-8.99-1.69-12.41-5.08c-3.41-3.41-5.12-7.53-5.12-12.35c0-4.32,1.43-8.17,4.28-11.56
	c3.52-4.15,8.06-6.22,13.65-6.22C271.11,36.93,274.05,37.76,276.89,39.42z"/>
<path d="M289.42,51.13l13.21-13.54h6.83l-15.34,15.36l15.42,18.57h-6.86l-12.22-15.1l-1.05,1.05v14.04h-5.12V37.59h5.12V51.13z"/>
<path d="M99.1,133.95v-33.93h7.12c3.41,0,6.11,0.34,8.09,1.01c2.12,0.66,4.05,1.78,5.78,3.36c3.5,3.19,5.25,7.39,5.25,12.59
	c0,5.21-1.82,9.43-5.47,12.66c-1.83,1.61-3.75,2.73-5.76,3.36c-1.88,0.63-4.53,0.94-7.98,0.94H99.1z M104.22,129.14h2.31
	c2.3,0,4.21-0.24,5.73-0.73c1.52-0.51,2.9-1.33,4.13-2.44c2.52-2.3,3.78-5.3,3.78-8.99c0-3.72-1.25-6.74-3.74-9.05
	c-2.24-2.07-5.54-3.1-9.91-3.1h-2.31V129.14z"/>
<path d="M150.5,104.84h-13.6v8.15h13.21v4.81H136.9v11.34h13.6v4.81h-18.72v-33.93h18.72V104.84z"/>
<path d="M176.4,105.08l-4.15,2.46c-0.78-1.35-1.52-2.23-2.22-2.64c-0.73-0.47-1.68-0.7-2.83-0.7c-1.42,0-2.6,0.4-3.54,1.21
	c-0.94,0.79-1.41,1.79-1.41,2.99c0,1.66,1.23,2.99,3.69,4l3.38,1.38c2.75,1.11,4.77,2.47,6.04,4.08c1.27,1.6,1.91,3.57,1.91,5.9
	c0,3.12-1.04,5.7-3.12,7.73c-2.09,2.05-4.69,3.08-7.8,3.08c-2.94,0-5.38-0.87-7.29-2.61c-1.89-1.74-3.07-4.2-3.54-7.36l5.19-1.14
	c0.23,1.99,0.64,3.37,1.23,4.13c1.05,1.46,2.59,2.2,4.61,2.2c1.6,0,2.92-0.53,3.98-1.6s1.58-2.42,1.58-4.06
	c0-0.66-0.09-1.26-0.27-1.81c-0.18-0.55-0.47-1.05-0.86-1.52c-0.39-0.46-0.89-0.89-1.51-1.3s-1.35-0.79-2.2-1.15l-3.27-1.36
	c-4.64-1.96-6.97-4.83-6.97-8.61c0-2.55,0.97-4.68,2.92-6.39c1.95-1.73,4.37-2.59,7.27-2.59C171.15,99.36,174.2,101.27,176.4,105.08
	z"/>
<path d="M188.58,100.02v33.93h-5.12v-33.93H188.58z"/>
<path d="M214.17,116.28h14.02v1.12c0,2.55-0.3,4.8-0.9,6.77c-0.59,1.82-1.57,3.52-2.97,5.1c-3.15,3.54-7.16,5.32-12.02,5.32
	c-4.75,0-8.81-1.71-12.19-5.14c-3.38-3.44-5.08-7.57-5.08-12.39c0-4.92,1.72-9.1,5.16-12.52c3.44-3.44,7.63-5.16,12.57-5.16
	c2.65,0,5.13,0.54,7.43,1.63c2.2,1.08,4.36,2.84,6.48,5.27l-3.65,3.49c-2.78-3.71-6.17-5.56-10.17-5.56c-3.59,0-6.6,1.24-9.03,3.71
	c-2.43,2.43-3.65,5.48-3.65,9.14c0,3.78,1.35,6.89,4.06,9.34c2.53,2.27,5.28,3.41,8.24,3.41c2.52,0,4.78-0.85,6.79-2.55
	c2.01-1.71,3.13-3.76,3.36-6.15h-8.46V116.28z"/>
<path d="M234.63,133.95V97.72l24.74,25.88v-23.58h5.12v35.99l-24.74-25.82v23.75H234.63z"/>
<line class="st1" x1="48.36" y1="87.49" x2="315.23" y2="87.49"/>
</svg>
