<svg id="Layer_1" data-name="Layer 1" xmlns="http://www.w3.org/2000/svg" viewBox="0 0 67.63 55.25"><title>umassblack</title><path d="M65.19,32.3c-1.78,2.62-3.65,5.56-5.45,8.6C61.5,38,63.4,35,65.19,32.3Z" transform="translate(-10.16 -9.09)"/><path d="M52.81,54.33c-.47,1.19-.89,2.32-1.19,3.36C51.88,56.85,52.26,55.77,52.81,54.33Z" transform="translate(-10.16 -9.09)"/><path d="M53.27,63.4a4,4,0,0,0,1.33.16c4.07,0,9.43-6.18,9.43-13.35a5.15,5.15,0,0,1,1.63,1.87A5.14,5.14,0,0,0,64,50.19c0,7.17-5.36,13.37-9.43,13.35a3.76,3.76,0,0,1-3.08-1.32A3,3,0,0,0,53.27,63.4Z" transform="translate(-10.16 -9.09)"/><path d="M51.13,61.05s0,0,0,.07a4.39,4.39,0,0,0,0-.53C51.11,60.75,51.11,60.9,51.13,61.05Z" transform="translate(-10.16 -9.09)"/><path d="M51.61,38.67c.42-.5.79-.94,1.09-1.32C52.34,37.8,52,38.23,51.61,38.67Z" transform="translate(-10.16 -9.09)"/><path d="M71,24.6l0,0c-2.77.28-5.84,0-8.43.37l-4.77,6c2-2.47,3.63-4.53,4.78-6C65.15,24.55,68.21,24.87,71,24.6Z" transform="translate(-10.16 -9.09)"/><path d="M29.44,59.75l.36-.21Z" transform="translate(-10.16 -9.09)"/><path d="M32.92,57.43l.23-.17Z" transform="translate(-10.16 -9.09)"/><path d="M14.37,39.81c1,1.85,3,3,6,3.71l0,0C17.41,42.83,15.36,41.66,14.37,39.81Z" transform="translate(-10.16 -9.09)"/><path d="M13.51,59.32a5.29,5.29,0,0,0,.07.8,4.9,4.9,0,0,1-.06-.77c0-10.13,26.73-30,26.73-36.43A2.15,2.15,0,0,0,40,21.85a2.11,2.11,0,0,1,.26,1.06C40.24,29.37,13.51,49.2,13.51,59.32Z" transform="translate(-10.16 -9.09)"/><path d="M44,47.2s.65-.7,1.59-1.74c-2.83,3-4.89,5-4.89,5a66.48,66.48,0,0,1-7.48,6.73c.53-.4,1.07-.82,1.6-1.25A124.28,124.28,0,0,0,44,47.2Z" transform="translate(-10.16 -9.09)"/><path d="M21.91,62.3a15.48,15.48,0,0,0,7.36-2.45,15.44,15.44,0,0,1-7.37,2.43c-1.06,0-1.72-.14-2-.67C20.17,62.16,20.84,62.3,21.91,62.3Z" transform="translate(-10.16 -9.09)"/><path d="M15.17,28.1a29.22,29.22,0,0,1,22-9.53,21.2,21.2,0,0,1,2.49.14,17.4,17.4,0,0,0-2.5-.16A29,29,0,0,0,15.17,28.1Z" transform="translate(-10.16 -9.09)"/><path d="M13.58,60.12a5.29,5.29,0,0,1-.07-.8c0-10.12,26.73-29.95,26.73-36.41A2.11,2.11,0,0,0,40,21.85c-.72-1.32-2.83-1.74-5-1.74-5.62,0-21.27,6.75-21.27,16.74a6.19,6.19,0,0,0,.67,3c1,1.85,3,3,6.06,3.69l0,0h0c-3.46,2-8.83.41-10.08-2.72-.07-.14-.14-.27-.2-.41v24h6.69A5.78,5.78,0,0,1,13.58,60.12Z" transform="translate(-10.16 -9.09)"/><path d="M37.12,18.55a17.4,17.4,0,0,1,2.5.16,13.29,13.29,0,0,1,2,.37,10.67,10.67,0,0,1,1.47.46L33.94,9.09H10.16V36c.09-.27.21-.56.33-.86a24.85,24.85,0,0,1,4.68-7.07A29,29,0,0,1,37.12,18.55Z" transform="translate(-10.16 -9.09)"/><path d="M34.68,64.34V58.09C30.93,61,27,63.33,23.18,64.34Z" transform="translate(-10.16 -9.09)"/><path d="M77.78,9.09H54l-9.68,11.1a5.7,5.7,0,0,1,2.12,2.19,4,4,0,0,1,.47,1.81c0,1.46-1.13,3.57-2.93,6.07A111,111,0,0,1,36.68,39c-.65.73-1.32,1.46-2,2.19-7.24,7.93-15,16-15,19.43a2,2,0,0,0,.21,1c.31.53,1,.67,2,.67a15.44,15.44,0,0,0,7.37-2.43,1,1,0,0,1,.17-.1l.36-.21c1-.63,2.07-1.33,3.12-2.11l.23-.17.05,0a66.48,66.48,0,0,0,7.48-6.73s2.06-2,4.89-5c1.68-1.83,4.29-4.73,6-6.79.37-.44.73-.87,1.09-1.32h0c1.82-2.3,3.55-4.46,5.08-6.39l4.77-6c2.59-.42,5.66-.09,8.43-.37l0,0h0a81.9,81.9,0,0,0-5.81,7.71C63.4,35,61.5,38,59.74,40.9a130,130,0,0,0-6.47,12.31l-.46,1.12c-.55,1.44-.93,2.52-1.19,3.36a10.67,10.67,0,0,0-.52,2.9,4.39,4.39,0,0,1,0,.53,2.79,2.79,0,0,0,.37,1.1,3.76,3.76,0,0,0,3.08,1.32c4.07,0,9.43-6.18,9.43-13.35a5.14,5.14,0,0,1,1.64,1.89,5,5,0,0,1,.53,2.27c0,4.4-3.55,8.29-8.08,10H77.78Z" transform="translate(-10.16 -9.09)"/></svg>